<svg width="187" height="185" viewBox="0 0 187 185" fill="none" xmlns="http://www.w3.org/2000/svg">
<path d="M61.8791 132.757C58.9749 142.701 46.5436 147.812 34.1249 144.185C21.7063 140.558 13.9797 129.56 16.8839 119.616C19.7855 109.681 32.2194 104.561 44.6381 108.188C57.0568 111.815 64.7807 122.822 61.8791 132.757ZM148.127 138.414C145.223 148.358 132.792 153.468 120.373 149.841C107.954 146.214 100.228 135.216 103.132 125.272C106.036 115.328 118.467 110.218 130.886 113.845C143.305 117.472 151.031 128.47 148.127 138.414Z" fill="#7C66D3"/>
<path fill-rule="evenodd" clip-rule="evenodd" d="M139.128 135.785L162.783 54.7941L171.782 57.4224L148.127 138.414L139.128 135.785ZM88.162 42.7669L61.8791 132.757L52.8801 130.129L79.163 40.1386L88.162 42.7669Z" fill="#7C66D3"/>
<path d="M79.4126 39.2837C80.0642 37.0527 81.5212 35.1433 83.5009 33.9259C85.4807 32.7085 87.842 32.2699 90.1269 32.6951L164.222 46.5221C165.51 46.7619 166.734 47.2689 167.814 48.0106C168.894 48.7523 169.806 49.7121 170.493 50.8282C171.179 51.9443 171.624 53.1918 171.798 54.4904C171.973 55.7889 171.873 57.1096 171.506 58.3673L169.153 66.4214L76.5347 49.1376L79.4126 39.2837Z" fill="#7C66D3"/>
</svg>
