<svg width="100" height="100" viewBox="0 0 100 100" fill="none" xmlns="http://www.w3.org/2000/svg">
<path d="M25 18.75C25 17.0924 25.6585 15.5027 26.8306 14.3306C28.0027 13.1585 29.5924 12.5 31.25 12.5H68.75C70.4076 12.5 71.9973 13.1585 73.1694 14.3306C74.3415 15.5027 75 17.0924 75 18.75V37.5C75 39.1576 74.3415 40.7473 73.1694 41.9194C71.9973 43.0915 70.4076 43.75 68.75 43.75H31.25C29.5924 43.75 28.0027 43.0915 26.8306 41.9194C25.6585 40.7473 25 39.1576 25 37.5V18.75ZM31.25 18.75V37.5H68.75V18.75H31.25ZM50 75C51.6576 75 53.2473 74.3415 54.4194 73.1694C55.5915 71.9973 56.25 70.4076 56.25 68.75C56.25 67.0924 55.5915 65.5027 54.4194 64.3306C53.2473 63.1585 51.6576 62.5 50 62.5C48.3424 62.5 46.7527 63.1585 45.5806 64.3306C44.4085 65.5027 43.75 67.0924 43.75 68.75C43.75 70.4076 44.4085 71.9973 45.5806 73.1694C46.7527 74.3415 48.3424 75 50 75Z" fill="white"/>
<path d="M68.75 68.75C68.75 73.7228 66.7746 78.4919 63.2583 82.0083C59.7419 85.5246 54.9728 87.5 50 87.5C45.0272 87.5 40.2581 85.5246 36.7417 82.0083C33.2254 78.4919 31.25 73.7228 31.25 68.75C31.25 63.7772 33.2254 59.0081 36.7417 55.4917C40.2581 51.9754 45.0272 50 50 50C54.9728 50 59.7419 51.9754 63.2583 55.4917C66.7746 59.0081 68.75 63.7772 68.75 68.75ZM50 81.25C53.3152 81.25 56.4946 79.933 58.8388 77.5888C61.183 75.2446 62.5 72.0652 62.5 68.75C62.5 65.4348 61.183 62.2554 58.8388 59.9112C56.4946 57.567 53.3152 56.25 50 56.25C46.6848 56.25 43.5054 57.567 41.1612 59.9112C38.817 62.2554 37.5 65.4348 37.5 68.75C37.5 72.0652 38.817 75.2446 41.1612 77.5888C43.5054 79.933 46.6848 81.25 50 81.25Z" fill="white"/>
<path d="M12.5 12.5C12.5 9.18479 13.817 6.00537 16.1612 3.66117C18.5054 1.31696 21.6848 0 25 0L75 0C78.3152 0 81.4946 1.31696 83.8388 3.66117C86.183 6.00537 87.5 9.18479 87.5 12.5V87.5C87.5 90.8152 86.183 93.9946 83.8388 96.3388C81.4946 98.683 78.3152 100 75 100H25C21.6848 100 18.5054 98.683 16.1612 96.3388C13.817 93.9946 12.5 90.8152 12.5 87.5V12.5ZM25 6.25C23.3424 6.25 21.7527 6.90848 20.5806 8.08058C19.4085 9.25268 18.75 10.8424 18.75 12.5V87.5C18.75 89.1576 19.4085 90.7473 20.5806 91.9194C21.7527 93.0915 23.3424 93.75 25 93.75H75C76.6576 93.75 78.2473 93.0915 79.4194 91.9194C80.5915 90.7473 81.25 89.1576 81.25 87.5V12.5C81.25 10.8424 80.5915 9.25268 79.4194 8.08058C78.2473 6.90848 76.6576 6.25 75 6.25H25Z" fill="white"/>
</svg>
