<svg width="126" height="126" viewBox="0 0 126 126" fill="none" xmlns="http://www.w3.org/2000/svg">
<path d="M96.129 85.0049C98.2259 91.5852 93.2548 99.0402 85.0369 101.659C76.8191 104.278 68.4512 101.073 66.3543 94.4933C64.2573 87.913 69.2285 80.458 77.4463 77.8392C85.6641 75.2204 94.0321 78.4247 96.129 85.0049Z" fill="#7C66D3"/>
<path fill-rule="evenodd" clip-rule="evenodd" d="M77.1523 25.4555L96.129 85.005L90.174 86.9026L71.1974 27.3532L77.1523 25.4555Z" fill="#7C66D3"/>
<path d="M70.8558 26.2813C70.4181 24.9049 70.4706 23.4193 71.0044 22.0773C71.5382 20.7352 72.5204 19.6195 73.7839 18.9197L90.5101 9.65375C91.3187 9.20593 92.2165 8.94303 93.139 8.884C94.0614 8.82497 94.9855 8.97128 95.8445 9.31238C96.7036 9.65348 97.4763 10.1809 98.1071 10.8566C98.7378 11.5323 99.2107 12.3395 99.4919 13.22L102.87 23.8198L74.9927 39.2631L70.8558 26.2813Z" fill="#7C66D3"/>
<path fill-rule="evenodd" clip-rule="evenodd" d="M21.8231 98.8445C21.5715 98.0548 21.6439 97.1975 22.0243 96.4612C22.4047 95.7249 23.0621 95.1699 23.8518 94.9182L44.6941 88.2764C45.4838 88.0247 46.3411 88.0971 47.0774 88.4775C47.8137 88.858 48.3687 89.5153 48.6204 90.305C48.872 91.0947 48.7997 91.952 48.4192 92.6883C48.0388 93.4246 47.3814 93.9797 46.5918 94.2313L25.7494 100.873C24.9598 101.125 24.1025 101.052 23.3661 100.672C22.6298 100.292 22.0748 99.6342 21.8231 98.8445ZM14.2325 75.0247C13.9808 74.2351 14.0532 73.3778 14.4336 72.6414C14.8141 71.9051 15.4714 71.3501 16.2611 71.0984L60.9232 56.8659C61.7129 56.6143 62.5702 56.6867 63.3065 57.0671C64.0428 57.4475 64.5979 58.1049 64.8495 58.8946C65.1012 59.6843 65.0288 60.5416 64.6484 61.2779C64.2679 62.0142 63.6105 62.5692 62.8209 62.8209L18.1588 77.0534C17.3691 77.305 16.5118 77.2327 15.7755 76.8522C15.0392 76.4718 14.4841 75.8144 14.2325 75.0247ZM6.64183 51.205C6.39018 50.4153 6.46254 49.558 6.84298 48.8217C7.22343 48.0853 7.88079 47.5303 8.67047 47.2786L53.3326 33.0462C54.1222 32.7945 54.9795 32.8669 55.7159 33.2473C56.4522 33.6278 57.0072 34.2851 57.2589 35.0748C57.5105 35.8645 57.4381 36.7218 57.0577 37.4581C56.6773 38.1944 56.0199 38.7495 55.2302 39.0011L10.5681 53.2336C9.77846 53.4852 8.92116 53.4129 8.18483 53.0324C7.44851 52.652 6.89347 51.9946 6.64183 51.205Z" fill="#7C66D3"/>
</svg>
